<?xml version="1.0" standalone="no"?>
<!DOCTYPE svg PUBLIC "-//W3C//DTD SVG 20010904//EN"
 "http://www.w3.org/TR/2001/REC-SVG-20010904/DTD/svg10.dtd">
<svg version="1.0" xmlns="http://www.w3.org/2000/svg"
 width="676.000000pt" height="689.000000pt" viewBox="0 0 676.000000 689.000000"
 preserveAspectRatio="xMidYMid meet">

<g transform="translate(0.000000,689.000000) scale(0.100000,-0.100000)"
fill="#000000" stroke="none">
<path d="M4370 6881 c-104 -22 -216 -116 -270 -228 -58 -120 -248 -440 -312
-526 -13 -17 -21 -16 -168 22 -822 214 -1547 74 -2155 -416 -163 -131 -352
-337 -459 -500 l-28 -42 -86 62 c-146 102 -242 177 -342 266 -196 174 -292
209 -411 150 -40 -20 -90 -73 -115 -121 -12 -22 -15 -50 -12 -98 6 -104 39
-150 268 -368 107 -102 254 -244 327 -314 l132 -129 -29 -112 c-64 -245 -75
-330 -75 -597 0 -217 3 -258 23 -358 45 -225 149 -478 272 -664 93 -141 256
-298 460 -443 113 -79 324 -207 441 -265 46 -23 86 -44 87 -45 2 -2 -19 -77
-47 -167 -27 -90 -89 -293 -136 -453 -47 -159 -88 -297 -91 -305 -4 -9 -16 13
-30 55 -38 112 -93 211 -155 279 -111 120 -218 168 -379 169 -182 1 -274 -51
-315 -179 -30 -90 -26 -289 8 -454 59 -283 156 -501 355 -803 177 -267 319
-321 552 -209 145 70 224 185 299 434 22 75 83 251 135 390 127 343 406 1061
417 1072 4 5 60 -5 131 -24 101 -28 146 -34 255 -38 114 -4 276 7 365 25 25 5
29 0 74 -88 74 -148 313 -588 414 -764 311 -537 485 -769 651 -868 98 -58 155
-72 299 -72 118 0 127 1 172 27 152 90 279 356 324 681 25 181 48 210 111 144
17 -17 95 -131 173 -252 177 -274 225 -337 347 -456 166 -161 344 -262 513
-291 86 -15 163 -2 229 39 54 34 124 132 146 205 20 67 20 226 -1 326 -46 227
-241 693 -389 927 -174 277 -384 490 -585 594 -125 64 -171 76 -300 76 -112 0
-117 -1 -193 -37 -209 -100 -371 -361 -473 -761 -51 -201 -102 -245 -206 -177
-88 58 -216 247 -353 520 -67 134 -155 327 -155 340 0 4 69 42 153 83 647 321
1038 819 1132 1442 19 128 19 304 0 475 -16 138 -80 472 -113 592 l-19 68 105
52 c200 98 333 201 382 299 50 98 1 271 -90 317 -99 50 -222 23 -577 -125 -10
-4 -80 115 -71 122 2 1 39 26 83 55 120 80 269 196 310 242 50 54 85 132 85
188 0 49 -37 140 -73 178 -45 48 -94 65 -176 60 -97 -6 -155 -31 -458 -194
l-232 -124 -48 51 c-26 29 -60 57 -74 63 l-25 11 97 210 c131 280 140 307 146
436 4 84 2 117 -11 157 -19 57 -64 124 -98 146 -29 18 -93 26 -138 17z m-959
-1136 c343 -40 626 -136 847 -287 42 -29 122 -98 177 -153 230 -229 364 -519
442 -950 28 -156 25 -504 -6 -645 -73 -342 -208 -598 -435 -826 -273 -273
-599 -418 -1041 -465 -215 -23 -654 4 -920 57 -1056 208 -1526 764 -1330 1572
22 90 79 269 89 279 7 7 1052 -852 1291 -1062 65 -58 124 -100 170 -121 156
-74 350 -66 420 18 32 38 65 146 65 214 0 108 -35 146 -305 331 -218 149 -620
450 -850 637 -256 209 -575 488 -575 505 0 26 131 285 187 370 109 163 283
312 457 390 187 84 406 131 721 155 101 8 473 -4 596 -19z m2222 -4323 c88
-60 273 -289 366 -451 66 -114 107 -235 91 -269 -9 -21 -15 -23 -43 -18 -101
20 -371 329 -482 551 -54 109 -65 164 -40 201 20 31 49 27 108 -14z m-4496
-62 c111 -67 259 -372 299 -615 21 -131 15 -191 -20 -222 -34 -29 -40 -29 -71
5 -38 40 -84 127 -174 324 -129 286 -164 403 -141 472 19 58 53 69 107 36z"/>
<path d="M2308 5286 c-63 -17 -93 -39 -121 -88 -32 -56 -45 -111 -57 -249 -21
-238 -7 -376 50 -488 62 -124 177 -201 300 -201 142 0 171 57 185 355 7 168
-6 370 -31 470 -22 88 -69 164 -119 192 -46 26 -130 30 -207 9z"/>
<path d="M3121 5173 c-47 -23 -97 -104 -122 -198 -17 -64 -22 -110 -22 -230
-2 -208 31 -343 103 -435 128 -161 410 -5 465 257 38 176 0 417 -78 502 -54
58 -193 121 -266 121 -25 0 -61 -8 -80 -17z"/>
</g>
</svg>
