<?xml version="1.0" standalone="no"?>
<!DOCTYPE svg PUBLIC "-//W3C//DTD SVG 20010904//EN"
 "http://www.w3.org/TR/2001/REC-SVG-20010904/DTD/svg10.dtd">
<svg version="1.0" xmlns="http://www.w3.org/2000/svg"
 width="593.000000pt" height="872.000000pt" viewBox="0 0 593.000000 872.000000"
 preserveAspectRatio="xMidYMid meet">

<g transform="translate(0.000000,872.000000) scale(0.100000,-0.100000)"
fill="#000000" stroke="none">
<path d="M2282 8689 c-24 -12 -63 -41 -87 -66 -77 -77 -121 -183 -230 -560
-54 -188 -100 -341 -102 -339 -7 7 -32 235 -38 346 -9 163 -28 246 -74 317
-96 149 -212 187 -358 117 -191 -92 -196 -198 -43 -1011 22 -116 40 -218 40
-227 0 -8 -34 -62 -76 -118 -276 -374 -443 -796 -538 -1363 -44 -260 -91 -672
-127 -1109 -14 -182 -6 -604 15 -764 87 -653 314 -1271 662 -1805 35 -54 64
-100 64 -104 0 -3 -30 -58 -67 -122 -90 -157 -224 -427 -263 -533 l-33 -86
-54 86 c-211 338 -448 511 -668 488 -80 -8 -193 -63 -238 -117 -45 -52 -61
-112 -54 -197 12 -133 82 -289 301 -672 275 -479 470 -721 652 -811 163 -81
316 -27 392 139 22 48 27 80 38 243 7 103 20 216 29 251 55 211 344 844 584
1278 102 184 116 222 108 298 -11 109 -79 160 -277 208 -106 26 -117 31 -155
69 -154 160 -306 684 -374 1290 -86 771 -60 1314 90 1895 196 762 582 1397
963 1585 133 66 254 56 406 -32 85 -50 286 -249 382 -378 299 -406 554 -962
644 -1406 32 -160 39 -398 15 -483 l-14 -49 -101 -47 c-215 -101 -646 -251
-1236 -430 -534 -161 -531 -160 -577 -229 -32 -48 -32 -137 2 -209 48 -103
170 -192 315 -228 96 -24 253 -15 400 24 185 49 519 155 838 266 345 120 315
125 287 -51 -69 -439 -283 -866 -594 -1187 -131 -134 -246 -225 -357 -282 -76
-39 -92 -44 -153 -44 -58 0 -79 5 -137 35 -38 18 -107 66 -154 106 -117 99
-166 129 -211 129 -74 0 -130 -83 -114 -169 17 -89 63 -136 298 -299 130 -90
201 -156 256 -241 53 -83 75 -144 117 -325 154 -673 494 -1175 951 -1405 145
-72 317 -109 428 -91 187 31 368 213 510 513 29 62 63 142 76 179 l23 66 27
-69 c105 -270 406 -571 652 -653 126 -42 302 -37 409 11 126 56 175 153 165
328 -10 180 -87 397 -269 760 -229 456 -354 652 -534 831 -74 75 -108 100
-179 135 -82 41 -94 44 -169 44 -73 0 -87 -3 -144 -34 -161 -88 -305 -330
-418 -703 -77 -258 -134 -419 -175 -503 -92 -186 -179 -257 -284 -232 -62 15
-167 128 -235 252 -101 185 -220 510 -306 844 -20 75 -37 143 -40 153 -3 11
11 25 51 48 211 121 456 379 643 679 235 378 459 939 593 1490 l32 130 121 50
c167 68 410 158 634 235 284 97 384 153 423 241 23 50 23 91 3 191 -29 142
-87 218 -188 245 -85 23 -161 7 -601 -130 -231 -72 -425 -131 -431 -131 -6 0
-25 65 -42 143 -209 941 -615 1682 -1102 2010 -41 27 -76 51 -78 52 -1 1 29
33 69 71 179 173 260 345 220 467 -19 55 -67 114 -113 138 -35 18 -54 21 -112
17 -89 -7 -124 -22 -433 -194 -134 -75 -246 -134 -249 -131 -9 9 18 220 37
292 10 39 30 112 44 164 27 100 32 191 14 256 -16 58 -99 136 -172 164 -79 29
-186 29 -245 0z m2665 -6826 c136 -101 503 -877 507 -1073 1 -50 -1 -55 -25
-63 -110 -40 -382 312 -538 697 -110 269 -135 383 -98 439 27 42 98 42 154 0z
m-4518 -463 c52 -26 121 -104 203 -230 115 -175 238 -443 215 -466 -12 -12
-73 54 -177 192 -169 224 -289 411 -310 486 -13 44 8 50 69 18z"/>
<path d="M2916 6513 c-84 -25 -131 -65 -168 -140 -32 -65 -33 -72 -32 -178 2
-302 182 -707 361 -812 87 -51 235 -39 296 25 78 81 85 243 21 496 -66 261
-154 465 -238 550 -73 75 -138 91 -240 59z"/>
<path d="M1944 6121 c-81 -38 -127 -80 -155 -143 -59 -132 -7 -439 119 -695
52 -108 117 -192 187 -245 127 -96 293 -91 362 11 45 67 27 223 -62 531 -95
330 -184 499 -288 549 -58 28 -90 26 -163 -8z"/>
</g>
</svg>
