<?xml version="1.0" standalone="no"?>
<!DOCTYPE svg PUBLIC "-//W3C//DTD SVG 20010904//EN"
 "http://www.w3.org/TR/2001/REC-SVG-20010904/DTD/svg10.dtd">
<svg version="1.0" xmlns="http://www.w3.org/2000/svg"
 width="763.000000pt" height="772.000000pt" viewBox="0 0 763.000000 772.000000"
 preserveAspectRatio="xMidYMid meet">

<g transform="translate(0.000000,772.000000) scale(0.100000,-0.100000)"
fill="#000000" stroke="none">
<path d="M5765 7691 c-126 -77 -254 -333 -354 -708 l-11 -42 -48 14 c-177 52
-473 73 -770 57 -573 -32 -843 -101 -1197 -307 -287 -166 -612 -440 -830 -698
-61 -72 -84 -93 -95 -87 -38 20 -197 169 -325 304 -166 175 -271 263 -380 317
-175 87 -319 70 -375 -46 -19 -40 -22 -58 -18 -129 8 -150 65 -241 340 -536
120 -129 265 -268 420 -401 l28 -24 -29 -81 c-39 -107 -77 -284 -92 -419 -14
-131 -7 -370 15 -501 69 -407 266 -827 552 -1176 l63 -76 -487 -616 c-267
-338 -487 -614 -489 -612 -1 1 -18 94 -37 207 -90 525 -172 852 -256 1020 -52
102 -153 242 -234 324 -124 124 -254 204 -391 240 -75 19 -231 19 -313 0 -114
-27 -280 -114 -350 -185 -271 -270 6 -1061 783 -2235 164 -247 394 -573 420
-595 26 -22 142 -18 189 5 109 53 281 253 1210 1413 l419 522 76 -72 c257
-246 621 -430 972 -493 l96 -17 -8 -36 c-5 -21 -13 -96 -20 -169 -26 -309 43
-692 175 -966 165 -345 391 -495 624 -414 258 90 654 501 1047 1085 l90 133
17 -113 c34 -230 124 -586 195 -778 126 -338 328 -591 568 -713 112 -56 188
-72 345 -72 132 0 149 2 194 24 158 78 172 372 41 886 -124 488 -494 1438
-670 1721 -76 121 -190 224 -250 224 -8 0 -15 3 -15 6 0 4 33 50 74 103 114
149 172 243 256 416 115 233 198 480 276 811 26 111 28 134 29 334 0 234 -8
297 -66 503 -69 246 -222 560 -376 772 -24 32 -43 63 -43 67 0 4 14 8 31 8 52
0 171 31 234 61 84 39 129 80 161 144 30 62 36 153 15 218 -17 50 -81 103
-143 117 -69 17 -220 8 -341 -21 -64 -15 -101 -19 -107 -13 -7 7 16 39 66 95
209 231 276 399 211 532 -15 28 -36 58 -49 66 -32 20 -125 16 -199 -9 -115
-38 -352 -178 -527 -311 -70 -53 -83 -57 -102 -34 -10 12 -7 35 18 123 57 197
66 263 67 447 0 153 -2 175 -23 226 -27 68 -81 133 -133 159 -49 26 -124 26
-164 1z m-823 -1057 c367 -62 773 -282 1106 -598 552 -524 730 -1287 481
-2051 -102 -313 -345 -694 -613 -960 -274 -272 -522 -391 -941 -450 -135 -20
-371 -19 -475 1 -97 18 -131 13 -163 -26 -21 -24 -25 -43 -31 -136 -4 -59 -10
-113 -14 -121 -12 -20 -401 307 -742 622 -538 498 -839 944 -935 1385 -22 102
-31 356 -16 461 20 137 41 221 55 216 7 -3 67 -43 133 -90 761 -536 1291 -891
1447 -968 118 -58 219 -88 297 -89 64 0 138 29 186 73 89 82 120 193 78 282
-46 97 -98 136 -1293 975 -325 228 -591 420 -592 425 0 20 220 273 337 386
413 401 859 633 1303 679 106 11 277 4 392 -16z m-4188 -3410 c171 -58 326
-361 380 -744 44 -305 92 -927 74 -946 -13 -12 -35 15 -141 174 -399 600 -643
1216 -569 1433 12 35 53 82 82 92 31 11 128 6 174 -9z m5743 -806 c48 -53 120
-197 228 -458 146 -354 306 -869 360 -1162 14 -77 14 -90 1 -122 -26 -63 -115
-95 -173 -63 -61 34 -200 272 -276 473 -92 240 -149 492 -193 849 -22 177 -25
465 -5 488 18 23 34 21 58 -5z m-688 -134 c12 -15 21 -36 21 -48 0 -28 -130
-286 -203 -403 -117 -188 -282 -391 -431 -530 -95 -89 -128 -106 -178 -93 -50
14 -65 36 -87 122 -38 148 -54 451 -30 558 39 173 275 310 679 394 159 33 203
33 229 0z"/>
<path d="M4279 5907 c-44 -22 -75 -48 -101 -82 -115 -152 -124 -401 -17 -514
45 -48 105 -66 219 -66 91 0 111 3 150 24 93 48 138 111 181 251 59 193 12
312 -155 391 -51 24 -74 29 -138 29 -67 0 -84 -4 -139 -33z"/>
<path d="M5254 5860 c-148 -73 -279 -289 -355 -583 -26 -100 -30 -241 -10
-311 29 -99 138 -178 224 -162 122 23 254 212 376 537 122 328 111 433 -56
518 -54 27 -125 27 -179 1z"/>
</g>
</svg>
