<?xml version="1.0" standalone="no"?>
<!DOCTYPE svg PUBLIC "-//W3C//DTD SVG 20010904//EN"
 "http://www.w3.org/TR/2001/REC-SVG-20010904/DTD/svg10.dtd">
<svg version="1.0" xmlns="http://www.w3.org/2000/svg"
 width="995.000000pt" height="1056.000000pt" viewBox="0 0 995.000000 1056.000000"
 preserveAspectRatio="xMidYMid meet">

<g transform="translate(0.000000,1056.000000) scale(0.100000,-0.100000)"
fill="#000000" stroke="none">
<path d="M7175 10553 c-149 -21 -298 -96 -410 -208 -128 -127 -244 -339 -245
-445 0 -78 51 -137 127 -147 67 -9 101 15 223 153 126 144 196 208 255 235 46
21 112 24 150 7 53 -24 42 -74 -45 -203 -61 -90 -89 -150 -90 -186 -1 -100
181 -141 318 -72 99 49 261 230 314 349 16 38 19 62 16 138 -3 76 -8 100 -33
149 -54 109 -171 192 -310 222 -65 14 -200 18 -270 8z"/>
<path d="M5445 9649 c-335 -31 -719 -392 -937 -880 -80 -180 -100 -250 -105
-374 -5 -103 -3 -112 19 -144 73 -107 186 -108 299 -4 82 76 112 123 175 270
119 280 352 643 412 643 49 0 -42 -266 -225 -653 l-65 -137 4 -89 c3 -98 16
-127 76 -167 41 -28 163 -41 232 -24 106 25 162 106 295 425 143 340 216 609
217 800 2 167 -40 258 -137 304 -55 26 -165 38 -260 30z"/>
<path d="M9285 9601 c-84 -23 -200 -72 -338 -143 -324 -166 -537 -388 -537
-559 0 -32 5 -69 12 -83 11 -27 97 -76 130 -76 46 0 98 37 202 143 123 125
181 172 303 242 147 84 313 127 373 95 54 -29 39 -128 -33 -227 -84 -113 -202
-204 -355 -275 -144 -66 -182 -106 -182 -190 0 -145 172 -210 405 -151 267 66
457 281 520 588 19 95 22 258 5 341 -26 131 -106 241 -208 287 -67 30 -203 33
-297 8z"/>
<path d="M7060 8655 c-275 -57 -610 -282 -769 -518 -137 -202 -159 -482 -54
-680 34 -64 168 -199 254 -255 138 -90 215 -83 465 43 213 107 302 165 392
255 180 180 303 465 302 699 -1 112 -88 287 -182 364 -115 94 -249 124 -408
92z m94 -419 c50 -21 62 -66 41 -148 -35 -139 -131 -295 -259 -424 -133 -133
-239 -169 -305 -103 -44 44 -56 96 -37 169 30 117 109 235 236 353 108 99 178
140 288 166 1 1 18 -5 36 -13z"/>
<path d="M4873 7660 c-80 -19 -111 -69 -142 -225 -19 -96 -179 -565 -192 -565
-4 0 -49 25 -100 56 -127 76 -412 214 -534 259 -244 91 -385 111 -648 95 -511
-31 -802 -111 -1088 -301 -123 -82 -332 -290 -417 -416 l-63 -93 -76 92 c-232
278 -411 418 -537 418 -48 0 -58 -4 -86 -31 -51 -51 -84 -126 -84 -189 0 -102
62 -188 344 -482 99 -102 180 -190 180 -194 0 -4 -25 -66 -56 -138 -110 -257
-208 -582 -254 -841 -28 -155 -38 -456 -20 -588 29 -214 91 -355 252 -569 243
-322 509 -576 825 -785 62 -41 113 -78 113 -82 0 -9 -566 -1351 -573 -1357 -2
-3 -40 18 -84 45 -189 117 -425 220 -615 267 -274 67 -657 26 -853 -91 -80
-48 -111 -79 -142 -143 -21 -44 -25 -62 -20 -107 9 -93 92 -218 257 -389 317
-328 700 -510 1120 -532 261 -14 602 55 747 151 149 99 143 233 -19 424 l-61
71 28 63 c44 101 210 417 312 596 113 198 314 501 416 626 77 96 75 94 157 76
83 -18 141 12 175 91 43 105 -6 195 -163 295 -31 21 -181 100 -332 178 -395
202 -530 294 -720 491 -233 242 -344 487 -366 806 -17 249 69 594 224 900 32
61 62 113 67 114 6 1 64 -57 129 -130 385 -424 943 -987 1220 -1231 326 -287
486 -377 647 -363 77 6 126 33 161 87 27 43 29 52 26 127 -3 72 -7 87 -39 140
-30 48 -61 78 -165 156 -269 203 -555 469 -1477 1370 l-219 213 69 105 c360
548 870 804 1415 711 524 -90 1159 -532 1488 -1036 29 -44 80 -138 115 -210
222 -456 253 -965 94 -1514 -64 -219 -185 -490 -283 -631 -25 -36 -88 -129
-141 -207 -175 -259 -250 -299 -583 -310 l-173 -6 7 -41 c11 -70 60 -203 95
-262 43 -72 94 -125 156 -161 45 -26 56 -28 153 -28 103 0 106 1 195 43 148
71 269 174 420 357 386 469 653 1104 706 1679 14 156 7 422 -16 556 -54 323
-172 598 -363 848 -35 46 -62 85 -60 87 2 2 48 20 103 40 269 100 451 230 473
338 16 82 -14 154 -82 190 -35 19 -56 22 -146 21 -98 -1 -179 -18 -295 -60
-11 -4 10 24 46 62 187 196 250 343 183 424 -116 137 -357 82 -595 -137 -36
-33 -59 -49 -55 -38 20 53 77 263 92 342 21 110 24 283 5 338 -21 61 -50 96
-95 115 -49 21 -139 31 -183 20z m-3988 -6055 c246 -57 516 -164 593 -235 47
-44 40 -109 -18 -148 -34 -23 -39 -24 -170 -18 -77 3 -171 14 -220 25 -217 50
-514 177 -595 254 -68 66 -58 109 32 143 56 21 240 11 378 -21z"/>
<path d="M9376 7454 c-138 -33 -265 -127 -280 -207 -11 -60 41 -141 107 -166
37 -14 109 -14 181 0 78 16 89 4 50 -52 -30 -44 -60 -61 -201 -114 -115 -43
-147 -99 -104 -183 43 -83 104 -108 223 -92 215 30 465 187 552 349 37 69 45
149 21 220 -21 64 -112 165 -183 204 -102 55 -242 71 -366 41z"/>
<path d="M7630 6780 c-108 -8 -284 -35 -379 -57 -366 -84 -591 -297 -617 -585
-17 -194 61 -295 197 -254 44 13 83 41 209 146 309 260 520 390 645 398 58 4
66 2 89 -21 80 -80 18 -195 -173 -321 -53 -35 -157 -97 -231 -138 -74 -41
-160 -91 -190 -110 -61 -39 -106 -56 -231 -88 -122 -31 -149 -50 -149 -104 0
-65 94 -175 167 -195 117 -33 378 11 605 101 233 91 510 314 648 520 79 118
103 183 104 283 1 73 -2 87 -36 155 -86 175 -202 249 -427 270 -58 5 -113 9
-121 9 -8 -1 -58 -5 -110 -9z"/>
<path d="M3373 6140 c-69 -46 -191 -269 -219 -400 -29 -135 -7 -290 59 -413
54 -103 117 -126 177 -66 38 38 60 79 128 239 130 304 172 428 172 504 0 57
-19 104 -53 128 -27 19 -47 23 -132 26 -88 3 -104 0 -132 -18z"/>
<path d="M4194 6002 c-142 -67 -255 -378 -257 -707 -1 -155 16 -229 63 -268
60 -51 167 -44 250 17 74 54 114 124 186 327 84 234 104 314 104 406 0 118
-27 160 -133 208 -77 36 -159 42 -213 17z"/>
<path d="M3625 3251 c-186 -70 -227 -96 -265 -172 -91 -178 -69 -632 56 -1137
114 -464 332 -764 619 -855 56 -18 93 -22 185 -21 145 0 208 17 365 94 161 80
307 191 486 372 l146 147 33 -127 c112 -438 276 -820 441 -1027 142 -179 587
-477 767 -514 76 -16 110 -14 158 10 34 16 49 32 70 75 25 50 27 65 26 167 -1
136 -23 256 -97 523 -210 753 -509 1399 -769 1660 -122 123 -215 161 -312 128
-121 -41 -254 -160 -737 -666 -265 -277 -379 -367 -491 -385 -49 -8 -111 31
-212 132 -93 93 -139 176 -175 315 -30 120 -37 421 -15 653 38 404 9 575 -107
628 -53 24 -108 24 -172 0z m2013 -1397 c90 -106 280 -452 400 -729 137 -317
193 -550 136 -572 -103 -39 -496 639 -604 1044 -31 115 -37 220 -15 266 9 20
23 37 30 37 8 0 31 -21 53 -46z"/>
</g>
</svg>
